<?xml version="1.0" encoding="utf-8"?>
<!-- Generator: Adobe Illustrator 23.1.0, SVG Export Plug-In . SVG Version: 6.00 Build 0)  -->
<svg version="1.1" id="Layer_1" xmlns="http://www.w3.org/2000/svg" xmlns:xlink="http://www.w3.org/1999/xlink" x="0px" y="0px"
	 viewBox="0 0 1200 453" style="enable-background:new 0 0 1200 453;" xml:space="preserve">
<style type="text/css">
	.st0{fill:none;stroke:#5AAFA7;stroke-width:3;stroke-miterlimit:10;}
	.st1{fill:none;stroke:#1B1464;stroke-width:8;stroke-miterlimit:10;}
</style>
<path id="_x31_" class="st0" d="M1175,410c-181.54,5.35-378.64,7.7-380-9c-0.95-11.69,94.2-31.01,92-44c-1.39-8.19-40.09-5.42-41-12
	c-1.8-13.08,149.28-38.4,148-51c-0.59-5.87-34.29-9.33-133-7c-5.9-3.06-7.08-5.4-7-7c0.1-2.01,2.21-3.12,9-8
	c8.64-6.21,9.16-7.24,9-8c-0.56-2.68-9.39-0.37-16-6c-4.35-3.7-6.39-9.68-5-11c1.95-1.87,10.91,5.32,12,4c1.24-1.5-9.8-11.39-8-14
	c1.1-1.6,5.5,1.74,9,0c7.26-3.61,2.07-24.86,6-26c3.22-0.93,8.19,12.87,13,12c4.38-0.79,5.56-13.2,7-13c1.37,0.19-0.64,11.3,3,13
	c3.5,1.64,7.64-7.59,16-8c7.62-0.38,12.23,6.89,15,5c2.37-1.61-1.02-6.88,0-14c1.39-9.65,10.46-19.64,20-21
	c10.59-1.51,18.64,8.06,22,5c2.98-2.71-3-10.52,0-14c4.79-5.56,24.16,9.63,33,3c5.86-4.39,0.68-13.53,8-24
	c3.2-4.58,20.08-15.14,16-11c-8.59,8.72,30.19,140.83,108,188c1.08,0.65,2.86,2.86,6,4c4.31,1.57,7.59,0.42,12,0
	c9.99-0.96,16.8,2.64,17,2c0.35-1.1-21.21-8.38-27-11c-34.49-15.59-58.5-50.5-77.5-83.5c-29.24-50.78-33.63-94.66-36.5-127.5
	c10.2-6.9,32.2-19.52,52-12c19.96,7.58,30.27,32.79,30,33c-0.19,0.14-7.7-9.84-9-9c-0.6,0.39,0.76,2.65,1,7c0.17,3.1-0.23,6.91-1,7
	c-1.18,0.13-1.37-8.75-7-18c-3.15-5.18-8.26-10.88-10-10c-2.83,1.44,6.59,22.27,5,23c-1.7,0.78-14.44-22.31-15-22
	c-0.31,0.17,3.54,7.09,5,17c0.23,1.57,0.64,4.81,0,5c-0.97,0.28-2.95-6.91-9-15c-3.52-4.71-6.61-7.3-7-7c-0.67,0.52,7.24,9.02,7,20
	c-0.01,0.68-0.12,3.84-1,4c-1.4,0.26-2.53-7.39-8-15c-4.51-6.28-10.81-10.93-12-10c-0.89,0.69,0.75,4.71,2,7
	c2.02,3.69,4.36,5.28,4,8c-0.03,0.21-0.25,1.84-1,2c-1.46,0.32-2.53-5.41-7-10c-4-4.1-9.32-5.86-10-5c-0.63,0.8,3.11,3.42,5,9
	c1.06,3.14,1.13,6,1,8c-1.25-1.29-22.4-22.4-52-16c-25.64,5.54-42.9,39.18-42,40c0.38,0.35,5.25-3.86,9-9c3.35-4.61,4.38-9.18,5-9
	c0.68,0.2-1.09,5.59,0,13c0.1,0.71,0.88,5.99,2,6c1.35,0.02,1.46-7.58,6-17c1.19-2.47,3.53-7.34,5-7c1.17,0.27-1.29,6.82,1,15
	c0.35,1.24,1.13,4.04,2,4c1.49-0.07,1.01-8.51,5-19c1.8-4.74,4.7-10.36,6-10c1.26,0.35,0.22,6.07,1,18c0.15,2.29,0.47,6.99,1,7
	c0.72,0.01,0.85-8.57,4-20c0.18-0.63,2.26-8.15,3-8c0.79,0.16-0.89,9.04-1,24c-0.01,1.16-0.4,2.87,0,3c0.96,0.31,5.23-8,8-17
	c2-6.49,2.5-11.05,3-11c1.08,0.12-1.77,21.35,1,22c1.86,0.43,7.17-8.17,8-17c1.85-19.58-18.05-43.1-41-49
	c-27.73-7.13-56.18,12.44-56,13c0.08,0.25,6.5-2.02,19-4c6.91-1.1,13.82-1.81,14-1c0.19,0.88-7.94,1.83-16,8
	c-5.79,4.43-9.74,10.17-9,11c0.83,0.93,7.11-4.92,18-10c10.07-4.7,17.73-6.62,18-6c0.26,0.61-6.89,2.86-12,10
	c-2.11,2.95-3.68,6.47-3,7c0.95,0.75,5.26-5.16,14-10c4.82-2.67,11.25-5.16,12-4c1.38,2.14-16.83,15.89-16,17
	c0.54,0.71,7.86-5.37,20-9c7.79-2.33,13.87-2.55,14-2c0.14,0.58-6.47,1.64-13,7c-3.01,2.48-5.45,5.41-5,6c0.66,0.87,6.61-4.66,16-6
	c5.54-0.79,10.92,0.07,11,1c0.12,1.36-11.07,2.7-11,4c0.07,1.17,9.25,1.91,31,2c0.22-2.12,1.65-18.81-11-31
	c-10.09-9.73-25.23-12.81-39-8c3.79-0.05,21.7,0.12,36,14c15.53,15.09,14.9,42.74,14,47c-0.07,0.33-0.36,1.54,0,3
	c0.88,3.61,4.92,5.5,6,6c6.07,2.84,11.2-0.44,19-1c8.92-0.64,20.17,2.37,27,10c5.59,6.25,6.82,14.01,7,19c4.04-1.76,17.13-6.92,26-1
	c11.36,7.58,12.47,31.11,11,38c-0.11,0.53-0.49,2.12,0,4c1.26,4.85,7.11,7.25,9,8c8.71,3.44,12.04-0.84,20,1
	c10.19,2.36,10.52,10.71,20,14c4.82,1.67,12.4,2.18,24-4"/>
<path id="_x32_" class="st0" d="M1028.5,63.5c12.75-24.24,56.41-16.78,53-17c-0.71-0.05-33.72,7.07-33,9c0.27,0.72,7.57-1.09,17,2
	c5.21,1.71,9.25,4.33,9,5c-0.34,0.93-8.54-2.77-20-2c-5.29,0.36-10.98,1.64-11,3c-0.03,1.57,7.57,1.68,17,7c3.02,1.7,6.22,3.48,6,4
	c-0.31,0.73-6.8-2.48-16-3c-7.96-0.45-14.03,1.33-14,2c0.04,0.75,7.66-0.52,15,4c3.04,1.87,5.39,4.34,5,5c-0.58,0.99-6.52-3.21-15-3
	c-5.45,0.13-10.08,2.04-10,3c0.1,1.12,6.58,0.16,14,4c3.05,1.58,6.39,4.04,6,5c-0.48,1.19-6.24-1.03-15-1c-4.82,0.01-9.97,0.37-10,1
	c-0.06,1.15,16.97,2.07,17,4c0.01,0.61-7.06-0.94-12,3c-1.96,1.56-3.22,4.45-4,6c-0.81,1.6-1.6,3.84-1.89,4.68
	c-0.03,0.08-0.1,0.05-0.14-0.02C1022.86,105.43,1020.28,79.13,1028.5,63.5z"/>
<path id="_x33_" class="st0" d="M13.5,268.5c276,0,552,0,828,0c27.27-1.17,66.9-2.36,115-2c35.93,0.27,79.99,1.43,80,3
	c0.01,1.41-35.62,2.04-100,6c-51.17,3.15-71.02,4.22-71,5c0.04,1.37,61.4-3.85,148,3c2.59,0.2,10.41,0.92,11,3
	c1.22,4.28-33.19,18.57-73,35c-32.31,13.33-46.7,18.47-46,23c1.32,8.55,54.5,3.45,56,12c1.84,10.51-76.99,26.61-76,38
	c0.77,8.92,50.44,15.08,198,14"/>
<path id="_x34_" class="st1" d="M155,69c0.33,32.33,0.67,64.67,1,97c-1.11,3.32-3.36,8.16-8,12c-8.62,7.13-21.89,7.8-34,2"/>
<path id="_x35_" class="st1" d="M190,150c26.39,7.42,48.19,4.8,54-6c2.64-4.9,1.42-10.43,1-12c-3.32-12.6-20.66-21.27-34-18
	c-17.51,4.29-25.44,28.52-21,46c0.96,3.77,4.57,15.39,16,22c13.14,7.6,31.11,5.38,45-6"/>
<path id="_x36_" class="st1" d="M281,91c-2.69-0.43-5.32-3.6-5-7c0.34-3.55,3.77-6.04,7-6c4.49,0.06,7.86,5.01,7,8
	c-0.57,2-3.04,3.11-5,4C283.39,90.73,282.32,91.21,281,91z"/>
<path id="_x37_" class="st1" d="M284,114c0.33,24.33,0.67,48.67,1,73c0.17,2.02,0.49,8.75-4,14c-5.72,6.69-16.98,8.33-27,3"/>
<path id="_x38_" class="st1" d="M319,112c-7,23-6,47,7,61c8.95,9.63,22.83,7.73,29.93,6.07c3.63-0.85,6.88-2.94,9.01-5.99
	c0.02-0.02,0.03-0.05,0.05-0.07c6.56-9.46,4.4-20.33,4-38c-0.33-14.67-0.73-20.99,0-21c2.5-0.02,0,51,3,64c0.71,3.08,6.68,4.44,11,4
	"/>
<path id="_x39_" class="st1" d="M432,81c15.22-0.67,26.06,9.23,28,11c20.36,18.59,24.45,65.24-2,84c-12.79,9.08-32.2,11.25-46,3
	c-28.33-16.93-23.62-72.11-1-90C420.48,81.5,432,81,432,81z"/>
<path id="_x31_0" class="st1" d="M501,82c0,34,0,68,0,102c0,2,0,4,0,6"/>
<path id="_x31_1" class="st1" d="M538,189c0.33-36,0.67-72,1-108"/>
<path id="_x31_2" class="st1" d="M287,182"/>
<path id="_x31_3" class="st1" d="M572,147c17.33-0.33,34.67-0.67,52-1c3.64-10.33,1.74-21.27-5-28c-9-8.98-23.15-6.99-31-3
	c-18.46,9.39-28.05,43.08-11,61c11.18,11.76,31.51,14.28,49,5"/>
<path id="_x31_4" class="st1" d="M645,113c7.38,59.95,8.04,73.84,7,74c-1.7,0.26-14.96-35.25,0-57c8.88-12.91,25.2-17.33,38-19"/>
<path id="_x31_5" class="st1" d="M736,108c-16.1,1.64-25.91,21.89-25,38c1,17.61,15.1,35.41,29,35c17.15-0.5,33.32-28.7,26-50
	C761.93,119.17,749.64,106.61,736,108z"/>
<path id="_x31_6" class="st1" d="M411,145c2.68,10.91,11.01,19.24,21,21c13.04,2.3,27.2-6.88,31-22"/>
</svg>
